PathFileType	4	(X/Y/Z)	67_1_53_p1_0-333_filt_butterworth.trc
DataRate	CameraRate	NumFrames	NumMarkers	Units	OrigDataRate	OrigDataStartFrame	OrigNumFrames
60.0	60.0	6	27	m	60.0	0	333
Frame#	Time	RHip			RKnee			RAnkle			RBigToe			RSmallToe			RHeel			LHip			LKnee			LAnkle			LBigToe			LSmallToe			LHeel			Neck			Head			Nose			RShoulder			RElbow			RWrist			RThumb			RIndex			RPinky			LShoulder			LElbow			LWrist			LThumb			LIndex			LPinky			
		X1	Y1	Z1	X2	Y2	Z2	X3	Y3	Z3	X4	Y4	Z4	X5	Y5	Z5	X6	Y6	Z6	X7	Y7	Z7	X8	Y8	Z8	X9	Y9	Z9	X10	Y10	Z10	X11	Y11	Z11	X12	Y12	Z12	X13	Y13	Z13	X14	Y14	Z14	X15	Y15	Z15	X16	Y16	Z16	X17	Y17	Z17	X18	Y18	Z18	X19	Y19	Z19	X20	Y20	Z20	X21	Y21	Z21	X22	Y22	Z22	X23	Y23	Z23	X24	Y24	Z24	X25	Y25	Z25	X26	Y26	Z26	X27	Y27	Z27	
0	0.0	0.38284283135056846	0.47317884097527213	-0.0600095424344486	0.3825523416224286	0.6623842064477032	0.3463011915656062	0.37699912870816293	0.8116017284721988	0.7288204531892625	0.35181712085159855	0.6897865147623348	0.8050419985149588	0.41374662804386025	0.7072769216059234	0.7909974647485866	0.3469921848307637	0.9142282794438952	0.7846977309984189	0.1936377087159442	0.5069103376420476	-0.04227344193703078	0.1936804661252966	0.664165935132282	0.3473317287541893	0.1590726131252957	0.8223928229425137	0.7296796206402246	0.2002448611482918	0.6771562635033558	0.803812539813369	0.1412097634195972	0.6859133677657888	0.788879730120871	0.162975354054458	0.8716234663555006	0.7820284969180388	0.31632524102349485	0.33626361131336163	-0.5841476983311142	0.3310003954615295	0.2640917665914492	-0.7968854869966037	0.30603870356477564	0.20882216271964593	-0.6648737563004448	0.4394613343273155	0.35509749549149444	-0.4823136965172412	0.45771799550299297	0.3997920441853612	-0.21092515260541886	0.3403110476800941	0.3010081112208238	-0.013262558825478894	0.24806038632719896	0.2854159958518255	0.05266057318175811	0.23846505815734834	0.30637804181457445	0.08503918183899728	0.26427419031737215	0.3511387922527824	0.09739268621003194	0.15423638581370458	0.37135310925321413	-0.5004785105647367	0.1328880882779599	0.4276015585413333	-0.22958614698839974	0.21306200542733875	0.3437526487219922	-0.024657161378386205	0.27909599995789136	0.31651453543803393	0.04494328685966045	0.27670266755895145	0.32234562417714735	0.07606120316568973	0.2509118556995348	0.3095117262094462	0.07323652515649871
1	0.0166666666666666	0.38371473584236776	0.4744217439596857	-0.05879061804322808	0.3810221558113623	0.6563218080580375	0.34171226646031155	0.3770201460005277	0.8113919374320273	0.7285991285692774	0.352501819558062	0.6890937853329833	0.8024240532567853	0.41471900178311494	0.7040419441976624	0.7876246813487323	0.34627849118264503	0.9108021673473791	0.7843603671303733	0.1955646886416299	0.5086510311744823	-0.03936627599037577	0.19370990080877037	0.6620667703875206	0.3418295088937094	0.15879027454833694	0.8205963631091913	0.72685870084589	0.19993106843025443	0.6778377220654501	0.8012417665674418	0.14202631487365128	0.6850352449349557	0.7865021408664121	0.163043448558663	0.871759913389254	0.7818862029521121	0.3162890609167747	0.3361841988146369	-0.5841964691721588	0.33100940405748214	0.2641332127720822	-0.7967878175686542	0.30775672104694285	0.2156650874336163	-0.6661955587069837	0.43715487764429545	0.36285343532613284	-0.48334453098182373	0.4576925376369507	0.3997338689514286	-0.21105771569440954	0.3399825335598808	0.30147370945503177	-0.011168752359152745	0.24543868589546142	0.29432090897880975	0.05738098502847737	0.23855022586881933	0.3190212007180049	0.08785238445811014	0.26458109140297736	0.3506029090887763	0.09829596599500796	0.15567092709351446	0.3792702707585477	-0.5016577540076519	0.13467072969879107	0.4166629534473284	-0.22912919461863968	0.2162175983115729	0.33550370816149483	-0.02472897642338636	0.28118003880675924	0.329056124363252	0.04892166471919488	0.2783876672698762	0.3301972845611388	0.07674168249318736	0.2490920818403596	0.3129426494581922	0.07374255111070399
2	0.0333333333333333	0.38430866155304505	0.47492049243924245	-0.05736824150947794	0.38028156800785073	0.6534482371518052	0.33928009601687026	0.37705056948777055	0.8113565990895732	0.7284492280105042	0.35292835520468674	0.6888592892376602	0.8008054981136958	0.4152623219361838	0.6998459962532733	0.7850257947095908	0.3464313032492895	0.9110953383066227	0.785273305038641	0.1968294814179795	0.5094225438275399	-0.03704886638820541	0.1939386564763304	0.6604481403553761	0.3389474965720108	0.15876094578439082	0.820104874422191	0.7260832996513938	0.19974072854613412	0.6782338031736336	0.7996942185091136	0.14254048163308825	0.6842600641731865	0.7850204779907097	0.16308008355403317	0.871744700917759	0.7817541502120653	0.3162671480301769	0.33614462267809836	-0.5842203961743435	0.33100893131918985	0.2641824308462355	-0.7967291103892788	0.3087837079278836	0.21980002728894416	-0.6669940945158357	0.4357716156128657	0.36752525219392157	-0.4839560399577869	0.4576618949904995	0.39968848388004724	-0.21117615996134279	0.33977951257465083	0.301759724935808	-0.009908018939056186	0.24484172335640667	0.3008992562093547	0.06031063070950246	0.23877779323884146	0.32821501834364303	0.08909001175403057	0.2646001556167768	0.350527855341143	0.09838514197144177	0.15653739429745822	0.38405181018443035	-0.5022893861559065	0.13490525643083165	0.409457179811614	-0.22882823905761646	0.21802172791157542	0.3305200891924687	-0.024724036336256812	0.2827406968800681	0.33840660320400845	0.05157577302232308	0.2789830075610513	0.33628361952839814	0.07722085333668051	0.24739338540530803	0.3163790971720149	0.07416712263661897
3	0.05	0.3846677408956911	0.47361315464547127	-0.055584707330255285	0.38049789662669214	0.6547037859175903	0.33961722904867936	0.3771373833051638	0.8116970235468072	0.7285544566800692	0.35311082526833465	0.6893068385686295	0.8004973839586177	0.4154467220244602	0.6946341250860243	0.7834108699120974	0.3471739592807597	0.9139748894043122	0.7870407225643955	0.1977658366784213	0.5081032358342353	-0.03620493917781785	0.19475691946922263	0.6584653019346278	0.33884024567754123	0.1589668566846021	0.8208578244523466	0.7272075324504821	0.19967704720982996	0.6783455331480289	0.7992535343791294	0.14255449558202068	0.684188116423651	0.7846793895830817	0.16306657573150343	0.871656637759754	0.7813504468811084	0.3162585778687661	0.33615161579977815	-0.5842156597313208	0.3309982436432248	0.2642388988560137	-0.7967111937939096	0.3090593240929081	0.2210154223543515	-0.6672156422375591	0.4353784459306031	0.3688702234934149	-0.4841193083194376	0.4576411162397533	0.39972425126141947	-0.21112703460066187	0.3397067577123264	0.3018557639926181	-0.009546569166717624	0.2463401333729635	0.3057442598166393	0.061508387715987156	0.23936110210380923	0.332707783579156	0.0894533008998034	0.2640471597518899	0.3518643839971608	0.09808856429572896	0.1567930422630531	0.3854726946174341	-0.5020497191857735	0.1337212546950465	0.40627292405491316	-0.22869882135950528	0.21810676882954622	0.3289850396999367	-0.0246537843042476	0.28317036816420166	0.34419166796285255	0.052871208710379064	0.27814602521235243	0.3411205359736906	0.07754519787482282	0.2461753988062944	0.3188470601261413	0.07444758173762198
4	0.0666666666666666	0.38506663208331704	0.46997963742359056	-0.05322664810704996	0.3810367131828127	0.6578609510982738	0.34165860595187963	0.37733934056485585	0.8125146538636415	0.7292417111708492	0.35317986472236945	0.6901361037637025	0.8010569192609984	0.41565411882480985	0.6891086378603674	0.7824067392186961	0.3477546362947248	0.9164611225516708	0.7884184606336551	0.19908346332190482	0.5042312801347197	-0.03681377951231928	0.19640812174382874	0.6547851933693243	0.33952038714722627	0.15918680033358143	0.8217976738725904	0.7285233640598848	0.19967178324947035	0.6783559489086788	0.7993580800902016	0.14185052415557461	0.6859862345485676	0.7853264289657669	0.16300180105524764	0.871689375353869	0.7803697501699778	0.3162529305459029	0.3361746850234615	-0.5841956656566971	0.33098414613384136	0.26429475524659257	-0.7967114524145497	0.30896719697528	0.22081191069817457	-0.6671430660585677	0.4354611736012454	0.3685911322356464	-0.4840707365338931	0.4576702060024341	0.3999699111994812	-0.21053182403284976	0.3396898016597445	0.3018644724638122	-0.00962400427778522	0.24835881221199274	0.31006373422473904	0.06213650546898946	0.23994845866278935	0.33384001337076513	0.09035796558150631	0.26278301372149493	0.3554177153864607	0.09833243106781273	0.15675224713843042	0.3852741124357608	-0.5009124025052036	0.13202879322943134	0.4054945930987394	-0.22865000197745627	0.2169351162222773	0.3289295467898504	-0.024670334400031985	0.28221797083918765	0.34858496863189836	0.05364033827657552	0.276531290911362	0.34544287246909183	0.07783134233568155	0.2455840118584227	0.31975654657322145	0.07458754680437024
5	0.0833333333333333	0.3855051267417567	0.4652652644292275	-0.050615568499052924	0.38131036207871044	0.6603963651312136	0.344084545150794	0.3776330950764883	0.8135409427887399	0.7306703155982817	0.35327297559521503	0.6905073110519165	0.802122770801209	0.4158001189212762	0.6842974212097083	0.7817803396746439	0.3478924872936293	0.9176614009258578	0.7889299472661471	0.20070609551280275	0.49922295312155734	-0.03778106153766949	0.1983802475743248	0.6497704422480879	0.33914820638894383	0.1592560115070709	0.8221193683053003	0.7288262301727919	0.19968074325272073	0.678376779362833	0.7995388612086123	0.14029385598862087	0.6903787491409419	0.7867495539535672	0.1629155572656993	0.8718750988084367	0.7790429786914883	0.31624383167251124	0.3361802431271783	-0.5841726333170768	0.33097470845359633	0.26434068757447265	-0.7967165972781982	0.30883403558320377	0.22044012636999155	-0.6670289441142904	0.43560106610770155	0.36810554034060705	-0.4840015796751869	0.4577775492286936	0.4004973229159595	-0.20906625250381272	0.3396757921494182	0.30185954009426147	-0.009756408994470696	0.24946376860856706	0.3133826184732152	0.06280811558404367	0.2398251381464153	0.33368816325811596	0.09157680601318975	0.26116493676902464	0.36028057630032073	0.09930927126974867	0.15667305234281767	0.3848618282148885	-0.4993611985564129	0.13037368270373875	0.40666713315199143	-0.22862740571197193	0.21533383919194563	0.32874959595596154	-0.02507487056549999	0.280507203386028	0.35283983066333247	0.05429386595505972	0.2751809419810614	0.3485024858282263	0.07806734793589633	0.24540443252766483	0.3196089666172309	0.07463975061637033
